<?xml version="1.0" encoding="UTF-8"?>
<svg id="Capa_2" data-name="Capa 2" xmlns="http://www.w3.org/2000/svg" viewBox="0 0 183.97 103.83">
  <defs>
    <style>
      .cls-1 {
        fill: #009ada;
      }

      .cls-2 {
        fill: #a3bfe3;
      }

      .cls-3 {
        fill: #fff;
      }

      .cls-4 {
        fill: #002d81;
      }
    </style>
  </defs>
  <g id="Capa_1-2" data-name="Capa 1">
    <g id="FondoForma2">
      <path class="cls-4" d="M9.71,84c6.99,18.46,53.81,19.86,105.36,3,16.3-5.33,42.11-11.48,54.62-18.51l14.28-57.64c-2.76-.27-15.07-7.04-18.11-7.09L9.71,84Z"/>
    </g>
    <g id="FondoForma2-2" data-name="FondoForma2">
      <path class="cls-1" d="M14.3,89.14c7.04,18.44,53.87,19.71,105.37,2.71,16.29-5.38,31.11-11.94,43.6-19.01l10.19-61.3c-2.76-.26-5.68-.4-8.73-.44L14.3,89.14Z"/>
    </g>
    <g id="FondoForma">
      <path class="cls-2" d="M0,83.66c4.85,19.14,51.21,25.84,104.34,14.94,16.8-3.45,32.29-8.25,45.51-13.81l17.25-59.7c-2.71-.58-5.6-1.06-8.62-1.45L0,83.66Z"/>
    </g>
    <path class="cls-3" d="M85.44,75.57c-3.45,1.41-7.92,2.78-13.42,4.11-5.5,1.34-10.93,2-16.27,2-12.34,0-22.17-3.56-29.5-10.68s-11-17.22-11-30.3c0-12.3,3.67-22.17,11-29.58C33.57,3.71,43.6,0,56.33,0c6.57,0,11.92.62,16.03,1.87,4.11,1.25,8.37,2.94,12.76,5.09v18.4h-1.79c-.95-.74-2.31-1.78-4.09-3.14-1.78-1.35-3.51-2.5-5.19-3.45-1.97-1.12-4.25-2.09-6.83-2.9-2.58-.81-5.32-1.21-8.2-1.21-3.38,0-6.45.53-9.23,1.58-2.78,1.05-5.26,2.67-7.44,4.85-2.07,2.11-3.72,4.78-4.93,8.02-1.21,3.23-1.82,7-1.82,11.29,0,9.18,2.3,15.94,6.91,20.3,4.6,4.36,10.9,6.54,18.88,6.54.7,0,1.53-.02,2.48-.05.95-.03,1.77-.09,2.48-.16v-15.4h-15.24v-14.71h40.8l-6.47,38.65Z"/>
  </g>
</svg>